<?xml version="1.0" encoding="utf-8"?>
<svg viewBox="0 0 1000 1000" width="1000px" height="1000px" xmlns="http://www.w3.org/2000/svg">
  <path d="M 125 200 L 875 200 C 888.807 200 900 211.193 900 225 L 900 775 C 900 788.807 888.807 800 875 800 L 125 800 C 111.193 800 100 788.807 100 775 L 100 225 C 100 211.193 111.193 200 125 200 Z M 141.5 252.5 L 141.5 747.5 C 141.5 753.023 145.977 757.5 151.5 757.5 L 846.5 757.5 C 852.023 757.5 856.5 753.023 856.5 747.5 L 856.5 252.5 C 856.5 246.977 852.023 242.5 846.5 242.5 L 151.5 242.5 C 145.977 242.5 141.5 246.977 141.5 252.5 Z" style="fill: rgb(255, 255, 255);"/>
  <path d="M 633.665 531.13 C 616.65 501.642 626.871 463.861 656.52 446.685 L 624.641 391.462 C 615.535 396.796 604.928 399.858 593.633 399.858 C 559.562 399.858 531.941 372.054 531.941 337.761 L 468.161 337.761 C 468.242 348.347 465.606 359.075 459.927 368.89 C 442.913 398.378 405.05 408.396 375.361 391.32 L 343.48 446.543 C 352.666 451.754 360.617 459.399 366.254 469.195 C 383.249 498.642 373.069 536.342 343.541 553.559 L 375.421 608.781 C 384.507 603.489 395.032 600.467 406.287 600.467 C 440.256 600.467 467.796 628.088 467.979 662.239 L 531.759 662.239 C 531.738 651.755 534.374 641.148 539.992 631.434 C 556.987 601.987 594.747 591.949 624.417 608.924 L 656.297 553.702 C 647.171 548.489 639.283 540.865 633.665 531.13 Z M 500.02 565.706 C 463.74 565.706 434.314 536.301 434.314 500.001 C 434.314 463.699 463.719 434.293 500.02 434.293 C 536.301 434.293 565.727 463.699 565.727 500.001 C 565.727 536.301 536.321 565.706 500.02 565.706 Z" style="fill: rgb(255, 255, 255);"/>
</svg>